<svg xmlns="http://www.w3.org/2000/svg" xmlns:xlink="http://www.w3.org/1999/xlink" width="236" height="60" viewBox="0 0 236 60">
  <defs>
    <clipPath id="clip-svg_2">
      <rect width="236" height="60"/>
    </clipPath>
  </defs>
  <g id="svg_2" data-name="svg – 2" clip-path="url(#clip-svg_2)">
    <g id="educacional_bi_pos" transform="translate(118.197 30.028)">
      <g id="Grupo_2591" data-name="Grupo 2591" transform="translate(-114.197 -27.028)">
        <g id="Grupo_2590" data-name="Grupo 2590" transform="translate(-0.006 -0.048)">
          <g id="Grupo_2588" data-name="Grupo 2588">
            <path id="Caminho_2259" data-name="Caminho 2259" d="M58.6,45.2V36.1h4.2v1.1h-3V40h3v1.1h-3v3h3.4v1.1Z" fill="#00316a"/>
            <path id="Caminho_2260" data-name="Caminho 2260" d="M67.4,45.3A3.2,3.2,0,0,1,64,42a3.4,3.4,0,0,1,3.4-3.5h1v-3h1.2v9.4A4.7,4.7,0,0,1,67.4,45.3Zm1-5.6h-.9A2.3,2.3,0,0,0,65.2,42a2.2,2.2,0,0,0,2.4,2.4l.8-.2Z" fill="#00316a"/>
            <path id="Caminho_2261" data-name="Caminho 2261" d="M75.5,45.2l-.3-.7a3.3,3.3,0,0,1-2.1.8c-.9,0-2.1-.5-2.1-2.4V38.7h1.2v4.2c0,1,.4,1.4,1.2,1.4a2.2,2.2,0,0,0,1.6-.8V38.7h1.2v4.1a9.2,9.2,0,0,0,.1,2.4Z" fill="#00316a"/>
            <path id="Caminho_2262" data-name="Caminho 2262" d="M80.7,45.3A3,3,0,0,1,77.6,42a3.2,3.2,0,0,1,3.3-3.5,3.6,3.6,0,0,1,1.7.4V40a2.9,2.9,0,0,0-1.7-.5,2.1,2.1,0,0,0-2.1,2.4,2.1,2.1,0,0,0,2.1,2.4,2.9,2.9,0,0,0,1.6-.5l.3.8A4,4,0,0,1,80.7,45.3Z" fill="#00316a"/>
            <path id="Caminho_2263" data-name="Caminho 2263" d="M87.7,45.2l-.3-.6a2.8,2.8,0,0,1-2,.8,2,2,0,0,1-2-2c0-1.3,1-2.1,2.7-2.1h1.3v-.2A1.2,1.2,0,0,0,86,39.5a2.8,2.8,0,0,0-1.7.6l-.5-.8a3.8,3.8,0,0,1,2.4-.7c1.4,0,2.4.6,2.4,2.3V43a7.7,7.7,0,0,0,.1,2.2Zm-.3-3.1H86.2c-1.1,0-1.5.4-1.5,1.1a1.1,1.1,0,0,0,1.2,1.1,2,2,0,0,0,1.5-.6Z" fill="#00316a"/>
            <path id="Caminho_2264" data-name="Caminho 2264" d="M92.8,45.3a3,3,0,0,1-3-3.3A3.2,3.2,0,0,1,93,38.5a3.7,3.7,0,0,1,1.7.4V40a2.9,2.9,0,0,0-1.7-.5,2.1,2.1,0,0,0-2,2.4,2.1,2.1,0,0,0,2.1,2.4,2.9,2.9,0,0,0,1.6-.5l.3.8A4,4,0,0,1,92.8,45.3Z" fill="#00316a"/>
            <path id="Caminho_2265" data-name="Caminho 2265" d="M97.4,36.6a.8.8,0,1,1-.8-.8.8.8,0,0,1,.8.8ZM96,45.2V38.7h1.2v6.5Z" fill="#00316a"/>
            <path id="Caminho_2266" data-name="Caminho 2266" d="M103.6,39.4a4,4,0,0,1,0,5.1,3.2,3.2,0,0,1-4.3.1,4,4,0,0,1,0-5.2,3.1,3.1,0,0,1,4.3,0Zm-4,2.5c0,1.4.7,2.4,1.8,2.4s1.8-1,1.8-2.4-.7-2.4-1.8-2.4S99.6,40.5,99.6,41.9Z" fill="#00316a"/>
            <path id="Caminho_2267" data-name="Caminho 2267" d="M110,45.2v-4c0-.8-.1-1.6-1.1-1.6a3.1,3.1,0,0,0-1.9.9v4.7h-1.2V38.7h1l.2.7a3.7,3.7,0,0,1,2.3-.9c.9,0,1.9.6,1.9,2.3v4.4Z" fill="#00316a"/>
            <path id="Caminho_2268" data-name="Caminho 2268" d="M116.6,45.2l-.3-.6a2.8,2.8,0,0,1-2,.8,2,2,0,0,1-2-2c0-1.3,1-2.1,2.7-2.1h1.3v-.2a1.2,1.2,0,0,0-1.4-1.4,2.8,2.8,0,0,0-1.7.6l-.5-.8a3.8,3.8,0,0,1,2.4-.7c1.4,0,2.4.6,2.4,2.3V43a7.6,7.6,0,0,0,.1,2.2Zm-.3-3.1h-1.2c-1.1,0-1.5.4-1.5,1.1a1.1,1.1,0,0,0,1.2,1.1,2,2,0,0,0,1.5-.6Z" fill="#00316a"/>
            <path id="Caminho_2269" data-name="Caminho 2269" d="M120.2,45.3a1.1,1.1,0,0,1-1.3-1.3V35.5h1.2v8.1c0,.6.1.7.5.7h.4l.2.9Z" fill="#00316a"/>
          </g>
          <g id="Grupo_2589" data-name="Grupo 2589">
            <path id="Caminho_2270" data-name="Caminho 2270" d="M66.2,31.8c-5.9,0-9.2-4-9.2-9.1s3.9-9.4,10-9.4a10.8,10.8,0,0,1,4.7,1v3.3a8.7,8.7,0,0,0-4.5-1.3,5.759,5.759,0,0,0-6.1,6.1,5.951,5.951,0,0,0,5.8,6.2,9,9,0,0,0,4.5-1.2l1,2.6a11.2,11.2,0,0,1-6.2,1.8Z" fill="#00316a"/>
            <path id="Caminho_2271" data-name="Caminho 2271" d="M81.7,22a3.4,3.4,0,0,0-1.6-.5,3.6,3.6,0,0,0-2.4,1v9H74V18.6h3.1l.4,1.3a5.2,5.2,0,0,1,3.6-1.6,3.5,3.5,0,0,1,2,.6Z" fill="#00316a"/>
            <path id="Caminho_2272" data-name="Caminho 2272" d="M92.7,31.5l-.6-1.3a5.7,5.7,0,0,1-3.9,1.5c-1.7,0-4.5-.8-4.5-5.2v-8h3.7v7.8a2.2,2.2,0,0,0,2.3,2.5,3.6,3.6,0,0,0,2.2-.8V18.6h3.7v10a11.1,11.1,0,0,0,.2,3Z" fill="#00316a"/>
            <path id="Caminho_2273" data-name="Caminho 2273" d="M97,31.5l5.8-10.2H98.3l-.8-2.8h10.7l-5.7,10.1h5.6v2.9Z" fill="#00316a"/>
            <path id="Caminho_2274" data-name="Caminho 2274" d="M112.4,26.1a3.2,3.2,0,0,0,3.4,2.8,6.9,6.9,0,0,0,3.5-.9l.8,2.4a8.8,8.8,0,0,1-4.9,1.5c-4.6,0-6.6-3.3-6.6-6.7s2.2-6.8,6.1-6.8,6,2.7,6,6.7v1.1Zm2.2-5.1a2.5,2.5,0,0,0-2.3,2.5H117a2.4,2.4,0,0,0-2.3-2.5Z" fill="#00316a"/>
            <path id="Caminho_2275" data-name="Caminho 2275" d="M124.9,16.8a2.151,2.151,0,1,1,2.2-2.1,2.2,2.2,0,0,1-2.2,2.1ZM123,31.5V18.6h3.7V31.5Z" fill="#00316a"/>
            <path id="Caminho_2276" data-name="Caminho 2276" d="M137.4,22a3.4,3.4,0,0,0-1.6-.5,3.6,3.6,0,0,0-2.4,1v9h-3.7V18.6h3.1l.4,1.3a5.2,5.2,0,0,1,3.6-1.6,3.5,3.5,0,0,1,2,.6Z" fill="#00316a"/>
            <path id="Caminho_2277" data-name="Caminho 2277" d="M149.9,29.9a6.6,6.6,0,0,1-11.5-4.7,7,7,0,0,1,1.9-4.9,6.5,6.5,0,0,1,4.8-1.9,6.6,6.6,0,0,1,5,1.9,6.7,6.7,0,0,1,1.7,4.8A6.8,6.8,0,0,1,149.9,29.9ZM145,21.2c-1.9,0-2.8,1.7-2.8,3.9s1.1,3.9,2.9,3.9,2.9-1.7,2.9-3.9S146.8,21.2,145,21.2Z" fill="#00316a"/>
            <path id="Caminho_2278" data-name="Caminho 2278" d="M166.5,31.8c-4,0-7.2-2.3-7.2-6.7s3-6.8,7.3-6.8h1.5V12.2h3.7V30.7a11.6,11.6,0,0,1-5.3,1.1Zm1.7-10.5h-1.4a3.5,3.5,0,0,0-3.7,3.7,3.6,3.6,0,0,0,3.7,3.8h1.4Z" fill="#00316a"/>
            <path id="Caminho_2279" data-name="Caminho 2279" d="M185.3,29.9a6.6,6.6,0,0,1-11.5-4.7,7,7,0,0,1,1.9-4.9,6.5,6.5,0,0,1,4.8-1.9,6.6,6.6,0,0,1,5,1.9,6.7,6.7,0,0,1,1.7,4.8A6.8,6.8,0,0,1,185.3,29.9Zm-4.9-8.7c-1.9,0-2.8,1.7-2.8,3.9s1.1,3.9,2.9,3.9,2.9-1.7,2.9-3.9-1.2-3.9-3-3.9Z" fill="#00316a"/>
            <path id="Caminho_2280" data-name="Caminho 2280" d="M199.6,31.8a10.2,10.2,0,0,1-5.7-1.7l1.4-2.7a7.5,7.5,0,0,0,4.1,1.4c1.3,0,2.8-.5,2.8-1.9s-4.4-2.8-6.6-5.3a4.7,4.7,0,0,1-1.2-3.2c0-2.7,2.2-5.1,6.1-5.1a9.2,9.2,0,0,1,4.5,1.1v3.2a8.9,8.9,0,0,0-4.3-1.3c-1.3,0-2.4.6-2.4,1.6,0,3.1,7.7,2.8,7.7,8.5C206.2,29.8,203.3,31.8,199.6,31.8Z" fill="#00316a"/>
            <path id="Caminho_2281" data-name="Caminho 2281" d="M217,31.5l-.6-1.3a5.7,5.7,0,0,1-3.9,1.5c-1.7,0-4.5-.8-4.5-5.2v-8h3.7v7.8a2.2,2.2,0,0,0,2.3,2.5,3.6,3.6,0,0,0,2.2-.8V18.6h3.7v10a11.2,11.2,0,0,0,.2,3Z" fill="#00316a"/>
            <path id="Caminho_2282" data-name="Caminho 2282" d="M225.6,31.8c-2.3,0-3.2-1.3-3.2-3V12.2h3.7v15c0,.9.1,1.3.8,1.3h1l.5,2.8a5.8,5.8,0,0,1-2.8.5Z" fill="#00316a"/>
          </g>
        </g>
        <path id="Caminho_2283" data-name="Caminho 2283" d="M40.4,46.5c-.8-2.2-1.8-5-2.7-7.8-1.6-5.3-3-10.5-2.9-10.5s10.3-7,17-10.8c.1-.1,2.1-1.2,2.3-2.5a2.5,2.5,0,0,0-.1-1.1c-.3-1-1.2-1.9-3.6-2a67.9,67.9,0,0,0-8.7-.1,81.6,81.6,0,0,0-10.1,1S30.4,5.6,30,2.8a6,6,0,0,0-.5-1.7,2.2,2.2,0,0,0-1.6-1A2.4,2.4,0,0,0,26,.5a7.2,7.2,0,0,0-1.2,1.4C23,4.4,18,11.9,15.4,16.1c0,0-7.9,2.4-12.6,4.4-1.4.6-1.5,1.3-1.6,1.7s0,1,1.1,1.9l5.8,4.8C6.6,31.3.7,43.4.1,46.8a3.5,3.5,0,0,0,.6,2.9,2.8,2.8,0,0,0,2.1,1c1,0,2.4-1.1,3-1.5,4.7-3.4,14-10.5,14-10.5L34.4,52.3c.5.4,1.9,1.8,3.3,1.8a3.6,3.6,0,0,0,3.7-3A10.3,10.3,0,0,0,40.4,46.5ZM4.2,22.7c-.1-.1-.5-.4-.4-.7a.6.6,0,0,1,.3-.5l.4-.2A88.5,88.5,0,0,1,14,18.5l-2.8,4.7-2,3.5ZM6.5,42.2l-.7.5c-1,.5-1.3-.1-1.3-.4a3.1,3.1,0,0,1,.4-1.5l5-10.6,6.2,5.3Zm25.6-3.1c.8,2.8,1.8,5.8,2.2,7.2a1.3,1.3,0,0,1,0,1,.467.467,0,0,1-.7.1L33,47,21.9,37.2,30,31.5s1,4,2.1,7.6ZM18,33.9,10.9,28s4.3-8,5.6-10.1c.8-.2,7.1-1.4,10.1-1.7,0,0,.9,4.9,2.2,10.5ZM36.9,15.2l6.2-.2c.7,0,1.3.1,1.5.4s-.2.9-.7,1.3l-3.7,2.5-6.5,4.3c0,.1-1.4-6.2-1.6-7.9ZM23.7,7c.1-.1.5-.7.9-.7s.5.4.5.7l.4,2.6.7,4L18,15.4C19.7,12.7,22.7,8.2,23.7,7Z" transform="translate(-0.006 -0.048)" fill="#9d9fa3"/>
      </g>
    </g>
  </g>
</svg>
